STARTFONT 2.1
COMMENT converted Oberon font (using FontToBDF by R.Crelier 10.1.91)
FONT Times24i.Scn.Fnt
SIZE 24 75 75
FONTBOUNDINGBOX  23 26 0 -6
STARTPROPERTIES 3
FONT_ASCENT 20
FONT_DESCENT 6
DEFAULT_CHAR 0
ENDPROPERTIES
CHARS 122
STARTCHAR c0
ENCODING -1 0
SWIDTH 0 0
DWIDTH 0 0
BBX 0 0 0 0
BITMAP
ENDCHAR
STARTCHAR c9
ENCODING -1 9
SWIDTH 1032 0
DWIDTH 32 0
BBX 0 0 0 0
BITMAP
ENDCHAR
STARTCHAR c32
ENCODING -1 32
SWIDTH 258 0
DWIDTH 8 0
BBX 0 0 0 0
BITMAP
ENDCHAR
STARTCHAR c33
ENCODING -1 33
SWIDTH 258 0
DWIDTH 8 0
BBX 6 17 2 0
BITMAP
0C
0C
0C
08
18
18
10
10
10
20
20
20
00
00
00
C0
C0
ENDCHAR
STARTCHAR c34
ENCODING -1 34
SWIDTH 322 0
DWIDTH 10 0
BBX 6 6 3 11
BITMAP
6C
6C
24
24
48
90
ENDCHAR
STARTCHAR c35
ENCODING -1 35
SWIDTH 419 0
DWIDTH 13 0
BBX 10 17 1 0
BITMAP
0440
0440
0880
0880
0880
7FC0
7FC0
1100
2200
2200
FF80
FF80
4400
4400
4400
8800
8800
ENDCHAR
STARTCHAR c36
ENCODING -1 36
SWIDTH 451 0
DWIDTH 14 0
BBX 13 21 0 -2
BITMAP
0040
0040
03E8
0CB8
0898
1090
1910
1900
0D00
0E00
0700
01C0
02E0
0260
4260
4420
C440
E4C0
BF00
0800
0800
ENDCHAR
STARTCHAR c37
ENCODING -1 37
SWIDTH 516 0
DWIDTH 16 0
BBX 15 17 1 0
BITMAP
1C08
2210
6610
4220
C640
8440
CC80
8880
711C
0222
0266
0442
04C6
0884
10CC
1088
2070
ENDCHAR
STARTCHAR c38
ENCODING -1 38
SWIDTH 548 0
DWIDTH 17 0
BBX 14 17 1 0
BITMAP
00E0
0130
0210
0320
0260
0380
0300
0700
0B7C
3118
6318
4190
C1A0
C1C0
C180
E2CC
7CF0
ENDCHAR
STARTCHAR c39
ENCODING -1 39
SWIDTH 225 0
DWIDTH 7 0
BBX 3 6 3 11
BITMAP
60
60
20
20
40
80
ENDCHAR
STARTCHAR c40
ENCODING -1 40
SWIDTH 322 0
DWIDTH 10 0
BBX 10 22 0 -5
BITMAP
0040
0180
0200
0600
0800
1800
1000
3000
2000
6000
4000
4000
C000
8000
C000
8000
C000
8000
C000
4000
4000
2000
ENDCHAR
STARTCHAR c41
ENCODING -1 41
SWIDTH 322 0
DWIDTH 10 0
BBX 10 22 0 -5
BITMAP
0100
0080
0080
00C0
0040
00C0
0040
00C0
0040
00C0
0080
0080
0180
0100
0300
0200
0600
0400
1800
1000
6000
8000
ENDCHAR
STARTCHAR c42
ENCODING -1 42
SWIDTH 451 0
DWIDTH 14 0
BBX 12 12 1 0
BITMAP
0100
0100
4110
3260
1A80
0700
0E00
1580
64C0
8820
0800
0800
ENDCHAR
STARTCHAR c43
ENCODING -1 43
SWIDTH 451 0
DWIDTH 14 0
BBX 12 13 1 0
BITMAP
0100
0100
0100
0200
0200
0200
FFF0
0400
0400
0400
0800
0800
0800
ENDCHAR
STARTCHAR c44
ENCODING -1 44
SWIDTH 193 0
DWIDTH 6 0
BBX 4 6 0 -4
BITMAP
60
70
20
20
40
80
ENDCHAR
STARTCHAR c45
ENCODING -1 45
SWIDTH 225 0
DWIDTH 7 0
BBX 7 1 0 6
BITMAP
FE
ENDCHAR
STARTCHAR c46
ENCODING -1 46
SWIDTH 193 0
DWIDTH 6 0
BBX 2 2 1 0
BITMAP
C0
C0
ENDCHAR
STARTCHAR c47
ENCODING -1 47
SWIDTH 387 0
DWIDTH 12 0
BBX 12 17 0 0
BITMAP
0010
0030
0020
0040
0080
0180
0100
0200
0400
0C00
0800
1000
2000
6000
4000
8000
8000
ENDCHAR
STARTCHAR c48
ENCODING -1 48
SWIDTH 387 0
DWIDTH 12 0
BBX 12 17 0 0
BITMAP
03C0
0C60
0860
1830
3030
3060
2030
6060
6060
6060
C040
60C0
C0C0
C180
6100
6300
3C00
ENDCHAR
STARTCHAR c49
ENCODING -1 49
SWIDTH 387 0
DWIDTH 12 0
BBX 8 17 1 0
BITMAP
03
1F
02
06
06
04
0C
0C
0C
08
18
18
18
10
30
30
FC
ENDCHAR
STARTCHAR c50
ENCODING -1 50
SWIDTH 387 0
DWIDTH 12 0
BBX 11 17 0 0
BITMAP
07C0
18E0
2060
0060
0060
00C0
00C0
0180
0100
0600
0400
1C00
1000
2040
4080
FF80
FF00
ENDCHAR
STARTCHAR c51
ENCODING -1 51
SWIDTH 387 0
DWIDTH 12 0
BBX 11 17 0 0
BITMAP
03C0
0CE0
0060
0060
0040
0080
0300
0E00
1700
0380
0180
0180
0180
0100
0300
C600
F800
ENDCHAR
STARTCHAR c52
ENCODING -1 52
SWIDTH 387 0
DWIDTH 12 0
BBX 11 17 0 0
BITMAP
0020
0060
00C0
0140
0240
04C0
0880
1180
1180
2100
4300
FFE0
FFE0
0600
0400
0C00
0C00
ENDCHAR
STARTCHAR c53
ENCODING -1 53
SWIDTH 387 0
DWIDTH 12 0
BBX 11 17 0 0
BITMAP
07E0
07C0
0800
0800
1000
1000
3E00
0700
0380
0180
0180
0180
0100
0100
0200
CC00
F000
ENDCHAR
STARTCHAR c54
ENCODING -1 54
SWIDTH 387 0
DWIDTH 12 0
BBX 11 17 1 0
BITMAP
00E0
0300
0400
0C00
1000
3000
2000
6700
6980
5080
E080
C180
C180
C100
C300
C600
7800
ENDCHAR
STARTCHAR c55
ENCODING -1 55
SWIDTH 387 0
DWIDTH 12 0
BBX 10 17 1 0
BITMAP
3FC0
7FC0
4080
8080
0100
0300
0200
0600
0400
0800
1800
1000
3000
2000
4000
4000
C000
ENDCHAR
STARTCHAR c56
ENCODING -1 56
SWIDTH 387 0
DWIDTH 12 0
BBX 12 17 0 0
BITMAP
03E0
0C30
0810
1830
1820
0C40
0C80
0600
0700
0B00
1180
2180
40C0
C0C0
8080
C180
7E00
ENDCHAR
STARTCHAR c57
ENCODING -1 57
SWIDTH 387 0
DWIDTH 12 0
BBX 11 17 0 0
BITMAP
03C0
0C60
1860
1060
3060
3060
20E0
2140
32C0
1CC0
0080
0180
0100
0600
0400
1800
E000
ENDCHAR
STARTCHAR c58
ENCODING -1 58
SWIDTH 193 0
DWIDTH 6 0
BBX 4 11 2 0
BITMAP
30
30
00
00
00
00
00
00
00
C0
C0
ENDCHAR
STARTCHAR c59
ENCODING -1 59
SWIDTH 193 0
DWIDTH 6 0
BBX 5 15 1 -4
BITMAP
18
18
00
00
00
00
00
00
00
60
70
20
20
40
80
ENDCHAR
STARTCHAR c60
ENCODING -1 60
SWIDTH 451 0
DWIDTH 14 0
BBX 13 12 1 0
BITMAP
0018
0060
0180
0600
1800
E000
4000
3000
0800
0600
0100
00C0
ENDCHAR
STARTCHAR c61
ENCODING -1 61
SWIDTH 451 0
DWIDTH 14 0
BBX 12 5 1 4
BITMAP
7FF0
0000
0000
0000
FFE0
ENDCHAR
STARTCHAR c62
ENCODING -1 62
SWIDTH 451 0
DWIDTH 14 0
BBX 13 12 1 0
BITMAP
1800
0400
0300
0080
0060
0010
0038
00C0
0300
0C00
3000
C000
ENDCHAR
STARTCHAR c63
ENCODING -1 63
SWIDTH 354 0
DWIDTH 11 0
BBX 8 17 2 0
BITMAP
1E
23
63
63
02
06
04
18
30
20
20
40
40
00
00
C0
C0
ENDCHAR
STARTCHAR c64
ENCODING -1 64
SWIDTH 774 0
DWIDTH 24 0
BBX 21 20 1 -3
BITMAP
003F80
01C060
060030
040010
181F88
106318
208308
610210
430618
C20610
860C30
C61C20
842820
464840
C39980
401E00
600000
300000
1C3800
03C000
ENDCHAR
STARTCHAR c65
ENCODING -1 65
SWIDTH 451 0
DWIDTH 14 0
BBX 12 17 0 0
BITMAP
0060
0060
00E0
00E0
0140
0160
0240
0440
0440
0FC0
1040
10C0
20C0
60C0
40C0
C0C0
E7F0
ENDCHAR
STARTCHAR c66
ENCODING -1 66
SWIDTH 483 0
DWIDTH 15 0
BBX 14 17 0 0
BITMAP
1FF8
061C
060C
0C0C
0C0C
0C18
0C18
1860
1F80
1860
3030
3030
3030
3030
6060
61C0
FE00
ENDCHAR
STARTCHAR c67
ENCODING -1 67
SWIDTH 483 0
DWIDTH 15 0
BBX 14 17 1 0
BITMAP
00FC
031C
0E08
0808
1800
3000
7000
6000
6000
C000
C000
C000
C000
C000
C020
60C0
3F00
ENDCHAR
STARTCHAR c68
ENCODING -1 68
SWIDTH 548 0
DWIDTH 17 0
BBX 16 17 0 0
BITMAP
1FF8
060E
0606
0C03
0C03
0C03
0C03
1803
1803
1806
3006
3006
300C
3008
6030
60E0
FF00
ENDCHAR
STARTCHAR c69
ENCODING -1 69
SWIDTH 516 0
DWIDTH 16 0
BBX 15 17 0 0
BITMAP
1FFE
060C
0604
0C04
0C00
0C00
0C10
1860
1FE0
1840
3040
3000
3000
3008
6010
6070
FFE0
ENDCHAR
STARTCHAR c70
ENCODING -1 70
SWIDTH 483 0
DWIDTH 15 0
BBX 15 17 0 0
BITMAP
1FFE
060C
0604
0C04
0C00
0C00
0C10
1860
1FE0
1840
3040
3000
3000
3000
6000
6000
F800
ENDCHAR
STARTCHAR c71
ENCODING -1 71
SWIDTH 548 0
DWIDTH 17 0
BBX 15 17 1 0
BITMAP
00FE
030E
0E04
0804
1800
3000
7000
6000
6000
C07E
C018
C018
C030
C030
C030
60E0
3F00
ENDCHAR
STARTCHAR c72
ENCODING -1 72
SWIDTH 580 0
DWIDTH 18 0
BBX 18 17 0 0
BITMAP
1F87C0
060180
060180
0C0300
0C0300
0C0300
0C0300
180600
1FFE00
180600
300C00
300C00
300C00
300C00
601800
601800
F87E00
ENDCHAR
STARTCHAR c73
ENCODING -1 73
SWIDTH 258 0
DWIDTH 8 0
BBX 8 17 0 0
BITMAP
1F
06
06
0C
0C
0C
0C
18
18
18
30
30
30
30
60
60
F8
ENDCHAR
STARTCHAR c74
ENCODING -1 74
SWIDTH 322 0
DWIDTH 10 0
BBX 10 17 0 0
BITMAP
07C0
0180
0180
0300
0300
0300
0300
0600
0600
0600
0C00
0C00
0C00
0800
D800
D000
E000
ENDCHAR
STARTCHAR c75
ENCODING -1 75
SWIDTH 516 0
DWIDTH 16 0
BBX 16 17 0 0
BITMAP
1F8F
0606
0604
0C08
0C10
0C60
0C80
1900
1F80
1980
30C0
30C0
3060
3060
6030
6030
F8FC
ENDCHAR
STARTCHAR c76
ENCODING -1 76
SWIDTH 419 0
DWIDTH 13 0
BBX 12 17 0 0
BITMAP
1F80
0600
0600
0C00
0C00
0C00
0C00
1800
1800
1800
3000
3000
3000
3010
6020
60E0
FFC0
ENDCHAR
STARTCHAR c77
ENCODING -1 77
SWIDTH 709 0
DWIDTH 22 0
BBX 22 17 0 0
BITMAP
0F001C
030018
030038
070070
0500B0
0580B0
098160
098260
118460
118460
1188C0
2190C0
20D0C0
21A0C0
40C180
C08180
F087E0
ENDCHAR
STARTCHAR c78
ENCODING -1 78
SWIDTH 580 0
DWIDTH 18 0
BBX 18 17 0 0
BITMAP
1E03C0
060080
070080
0B0080
0B0100
098100
118100
10C200
10C200
10C200
206200
206400
203400
403400
403800
401800
F01800
ENDCHAR
STARTCHAR c79
ENCODING -1 79
SWIDTH 580 0
DWIDTH 18 0
BBX 16 17 1 0
BITMAP
00FC
0306
0E03
0803
1803
3003
7003
6003
6006
C006
C00E
C00C
C018
C010
C070
60C0
3F00
ENDCHAR
STARTCHAR c80
ENCODING -1 80
SWIDTH 451 0
DWIDTH 14 0
BBX 14 17 0 0
BITMAP
1FF8
061C
060C
0C0C
0C0C
0C18
0C18
1860
1F80
1800
3000
3000
3000
3000
6000
6000
F800
ENDCHAR
STARTCHAR c81
ENCODING -1 81
SWIDTH 580 0
DWIDTH 18 0
BBX 16 22 1 -5
BITMAP
00FC
0306
0E03
0803
1803
3003
7003
6003
6006
C006
C00E
C00C
C018
C010
C070
60C0
3F00
0400
0800
3F01
47D6
00F8
ENDCHAR
STARTCHAR c82
ENCODING -1 82
SWIDTH 483 0
DWIDTH 15 0
BBX 15 17 0 0
BITMAP
1FF8
061C
060C
0C0C
0C0C
0C18
0C18
1860
1F80
18C0
30C0
3060
3060
3070
6030
6038
F81E
ENDCHAR
STARTCHAR c83
ENCODING -1 83
SWIDTH 451 0
DWIDTH 14 0
BBX 14 17 0 0
BITMAP
01FC
061C
0C08
0C08
0C00
0E00
0600
0300
0300
0180
0180
00C0
40C0
40C0
C0C0
E180
FE00
ENDCHAR
STARTCHAR c84
ENCODING -1 84
SWIDTH 419 0
DWIDTH 13 0
BBX 13 17 0 0
BITMAP
7FF8
7338
C310
8610
0600
0600
0600
0C00
0C00
0C00
1800
1800
1800
1800
3000
3000
FC00
ENDCHAR
STARTCHAR c85
ENCODING -1 85
SWIDTH 548 0
DWIDTH 17 0
BBX 15 17 2 0
BITMAP
7E1E
1804
1804
3008
3008
3008
3008
6010
6010
4010
C010
C020
C020
C040
C040
E180
7E00
ENDCHAR
STARTCHAR c86
ENCODING -1 86
SWIDTH 483 0
DWIDTH 15 0
BBX 13 17 2 0
BITMAP
FC78
3030
3020
3060
3040
3040
6080
3100
6100
6200
6400
6400
6800
7000
6000
6000
4000
ENDCHAR
STARTCHAR c87
ENCODING -1 87
SWIDTH 741 0
DWIDTH 23 0
BBX 21 17 2 0
BITMAP
FC7E78
301818
303818
303830
305820
305860
60B040
311880
613080
221100
643200
643200
683400
703800
603000
603000
402000
ENDCHAR
STARTCHAR c88
ENCODING -1 88
SWIDTH 516 0
DWIDTH 16 0
BBX 16 17 0 0
BITMAP
0FC7
0303
0302
0304
0308
0190
01A0
01C0
0180
0380
0580
0980
10C0
20C0
40C0
C0C0
E3F0
ENDCHAR
STARTCHAR c89
ENCODING -1 89
SWIDTH 419 0
DWIDTH 13 0
BBX 13 17 0 0
BITMAP
7E38
1818
1810
1820
0840
1840
0C80
0900
0A00
0C00
1800
1800
1800
1800
3000
3000
FC00
ENDCHAR
STARTCHAR c90
ENCODING -1 90
SWIDTH 451 0
DWIDTH 14 0
BBX 14 17 0 0
BITMAP
1FFC
1C1C
3038
2070
2060
00C0
01C0
0380
0700
0600
0C00
1C00
3808
3008
6018
C070
FFF0
ENDCHAR
STARTCHAR c91
ENCODING -1 91
SWIDTH 322 0
DWIDTH 10 0
BBX 10 22 0 -5
BITMAP
03C0
0200
0600
0600
0400
0400
0C00
0800
0800
1800
1800
1000
1000
3000
2000
2000
6000
6000
4000
4000
C000
F800
ENDCHAR
STARTCHAR c92
ENCODING -1 92
SWIDTH 354 0
DWIDTH 11 0
BBX 6 18 2 0
BITMAP
C0
40
40
40
60
20
20
20
20
30
10
10
10
18
08
08
08
0C
ENDCHAR
STARTCHAR c93
ENCODING -1 93
SWIDTH 322 0
DWIDTH 10 0
BBX 10 22 0 -5
BITMAP
07C0
00C0
0080
0080
0180
0180
0100
0100
0300
0200
0200
0600
0600
0400
0400
0C00
0800
0800
1800
1800
1000
F000
ENDCHAR
STARTCHAR c94
ENCODING -1 94
SWIDTH 419 0
DWIDTH 13 0
BBX 10 13 2 0
BITMAP
0100
0300
0E80
1280
6640
8440
0400
0C00
0800
0800
1800
1000
3000
ENDCHAR
STARTCHAR c95
ENCODING -1 95
SWIDTH 451 0
DWIDTH 14 0
BBX 11 1 1 6
BITMAP
FFE0
ENDCHAR
STARTCHAR c96
ENCODING -1 96
SWIDTH 451 0
DWIDTH 14 0
BBX 4 5 8 14
BITMAP
C0
C0
60
20
10
ENDCHAR
STARTCHAR c97
ENCODING -1 97
SWIDTH 451 0
DWIDTH 14 0
BBX 12 12 1 0
BITMAP
01F0
0630
0830
1820
3060
2060
6040
60C0
C1C0
C290
CDE0
F180
ENDCHAR
STARTCHAR c98
ENCODING -1 98
SWIDTH 451 0
DWIDTH 14 0
BBX 13 18 0 0
BITMAP
0300
0F00
0200
0600
0600
0400
0C78
0D98
0A18
1C18
1830
1030
3020
3060
20C0
6080
6300
FC00
ENDCHAR
STARTCHAR c99
ENCODING -1 99
SWIDTH 322 0
DWIDTH 10 0
BBX 9 12 1 0
BITMAP
0700
1980
3180
6000
6000
4000
C000
C000
C000
C100
C600
7800
ENDCHAR
STARTCHAR c100
ENCODING -1 100
SWIDTH 451 0
DWIDTH 14 0
BBX 13 18 1 0
BITMAP
0018
0078
0018
0010
0030
0030
01F0
0620
0820
1860
3060
2040
60C0
60C0
C1C0
C290
CDE0
F180
ENDCHAR
STARTCHAR c101
ENCODING -1 101
SWIDTH 354 0
DWIDTH 11 0
BBX 10 12 1 0
BITMAP
0380
0CC0
10C0
3180
6300
7C00
C000
C000
C000
C100
C600
7800
ENDCHAR
STARTCHAR c102
ENCODING -1 102
SWIDTH 258 0
DWIDTH 8 0
BBX 8 24 0 -6
BITMAP
03
03
04
04
0C
08
7F
18
18
10
30
30
30
20
60
60
60
40
C0
C0
C0
80
80
80
ENDCHAR
STARTCHAR c103
ENCODING -1 103
SWIDTH 387 0
DWIDTH 12 0
BBX 12 18 0 -6
BITMAP
03F0
0440
0860
0860
1840
1840
1880
1F00
0C00
1000
3000
1C00
2F00
4380
8180
8180
C300
7C00
ENDCHAR
STARTCHAR c104
ENCODING -1 104
SWIDTH 451 0
DWIDTH 14 0
BBX 12 18 1 0
BITMAP
0600
1E00
0400
0C00
0C00
0800
1870
19B0
1230
1420
3860
3060
2040
60C0
60C0
4090
C1E0
C180
ENDCHAR
STARTCHAR c105
ENCODING -1 105
SWIDTH 225 0
DWIDTH 7 0
BBX 6 17 1 0
BITMAP
0C
0C
00
00
00
18
78
10
30
30
20
60
60
40
C8
F0
C0
ENDCHAR
STARTCHAR c106
ENCODING -1 106
SWIDTH 225 0
DWIDTH 7 0
BBX 7 23 0 -6
BITMAP
06
06
00
00
00
0C
3C
08
18
18
10
30
30
20
60
60
60
40
C0
C0
80
80
80
ENDCHAR
STARTCHAR c107
ENCODING -1 107
SWIDTH 419 0
DWIDTH 13 0
BBX 12 18 1 0
BITMAP
0600
1E00
0400
0C00
0C00
0800
1870
1820
1040
1180
3200
3C00
2600
6600
6300
4300
C180
C1C0
ENDCHAR
STARTCHAR c108
ENCODING -1 108
SWIDTH 225 0
DWIDTH 7 0
BBX 6 18 1 0
BITMAP
0C
3C
0C
08
18
18
18
10
30
30
30
20
60
60
60
48
F0
C0
ENDCHAR
STARTCHAR c109
ENCODING -1 109
SWIDTH 677 0
DWIDTH 21 0
BBX 19 12 1 0
BITMAP
1870E0
79B360
123460
142840
3870C0
3060C0
204080
60C180
60C180
408120
C183C0
C18300
ENDCHAR
STARTCHAR c110
ENCODING -1 110
SWIDTH 451 0
DWIDTH 14 0
BBX 12 12 1 0
BITMAP
1870
79B0
1230
1420
3860
3060
2040
60C0
60C0
4090
C1E0
C180
ENDCHAR
STARTCHAR c111
ENCODING -1 111
SWIDTH 419 0
DWIDTH 13 0
BBX 11 12 1 0
BITMAP
03C0
0C60
1060
3060
6060
6060
C0C0
C0C0
C180
C100
C600
7800
ENDCHAR
STARTCHAR c112
ENCODING -1 112
SWIDTH 451 0
DWIDTH 14 0
BBX 13 18 0 -6
BITMAP
0C78
3D98
0A18
1C18
1830
1830
1020
3060
30C0
2080
2300
7C00
6000
6000
4000
C000
C000
F000
ENDCHAR
STARTCHAR c113
ENCODING -1 113
SWIDTH 451 0
DWIDTH 14 0
BBX 13 18 1 -6
BITMAP
01F8
0630
0830
1820
3060
2060
6040
60C0
C1C0
C280
CD80
F180
0100
0300
0300
0200
0600
1F80
ENDCHAR
STARTCHAR c114
ENCODING -1 114
SWIDTH 290 0
DWIDTH 9 0
BBX 8 12 1 0
BITMAP
1B
7B
14
18
30
30
20
60
60
40
C0
C0
ENDCHAR
STARTCHAR c115
ENCODING -1 115
SWIDTH 322 0
DWIDTH 10 0
BBX 10 12 0 0
BITMAP
0FC0
10C0
3080
3080
1800
1C00
0E00
0600
4300
4300
C200
FC00
ENDCHAR
STARTCHAR c116
ENCODING -1 116
SWIDTH 258 0
DWIDTH 8 0
BBX 7 15 1 0
BITMAP
08
08
18
FE
10
30
30
20
60
60
60
40
C4
F8
E0
ENDCHAR
STARTCHAR c117
ENCODING -1 117
SWIDTH 451 0
DWIDTH 14 0
BBX 12 12 1 0
BITMAP
1830
7830
9020
3060
3060
2040
60C0
61C0
4280
C490
D9E0
E180
ENDCHAR
STARTCHAR c118
ENCODING -1 118
SWIDTH 354 0
DWIDTH 11 0
BBX 9 12 1 0
BITMAP
6180
E180
2080
3100
3100
3200
3200
3400
3400
3800
3000
2000
ENDCHAR
STARTCHAR c119
ENCODING -1 119
SWIDTH 516 0
DWIDTH 16 0
BBX 14 12 1 0
BITMAP
630C
E70C
2104
3188
3188
3188
3390
3390
35A0
39C0
3180
2100
ENDCHAR
STARTCHAR c120
ENCODING -1 120
SWIDTH 419 0
DWIDTH 13 0
BBX 11 12 1 0
BITMAP
1860
38E0
4880
0D00
0D00
0600
0C00
1600
1600
2240
E380
C300
ENDCHAR
STARTCHAR c121
ENCODING -1 121
SWIDTH 354 0
DWIDTH 11 0
BBX 10 18 0 -6
BITMAP
70C0
30C0
1840
1880
1880
1900
1900
1A00
1A00
1C00
1800
1000
1000
1000
2000
2000
C000
C000
ENDCHAR
STARTCHAR c122
ENCODING -1 122
SWIDTH 354 0
DWIDTH 11 0
BBX 10 12 0 0
BITMAP
1FC0
1FC0
2080
2100
0200
0400
0800
1000
2080
4080
FF00
FF00
ENDCHAR
STARTCHAR c123
ENCODING -1 123
SWIDTH 322 0
DWIDTH 10 0
BBX 10 22 0 -5
BITMAP
01C0
0200
0600
0400
0C00
0C00
0800
1800
1800
3000
C000
2000
1000
3000
3000
6000
6000
4000
C000
8000
8000
7000
ENDCHAR
STARTCHAR c124
ENCODING -1 124
SWIDTH 387 0
DWIDTH 12 0
BBX 9 22 1 -5
BITMAP
0180
0100
0100
0300
0200
0200
0600
0400
0400
0C00
0800
0800
1800
1000
1000
3000
2000
2000
6000
4000
4000
C000
ENDCHAR
STARTCHAR c125
ENCODING -1 125
SWIDTH 322 0
DWIDTH 10 0
BBX 10 22 0 -5
BITMAP
0380
0040
0040
00C0
0080
0180
0180
0300
0300
0200
0100
00C0
0300
0600
0600
0400
0C00
0C00
0800
1800
1000
E000
ENDCHAR
STARTCHAR c126
ENCODING -1 126
SWIDTH 483 0
DWIDTH 15 0
BBX 13 4 1 4
BITMAP
3C08
4608
8310
81E0
ENDCHAR
STARTCHAR c127
ENCODING -1 127
SWIDTH 32 0
DWIDTH 1 0
BBX 0 0 0 0
BITMAP
ENDCHAR
STARTCHAR c128
ENCODING -1 128
SWIDTH 451 0
DWIDTH 14 0
BBX 14 20 0 0
BITMAP
018C
0084
0000
0060
0060
00E0
00E0
0140
0160
0240
0440
0440
0FC0
1040
10C0
20C0
60C0
40C0
C0C0
E7F0
ENDCHAR
STARTCHAR c129
ENCODING -1 129
SWIDTH 580 0
DWIDTH 18 0
BBX 16 20 1 0
BITMAP
00C3
0041
0000
00FC
0306
0E03
0803
1803
3003
7003
6003
6006
C006
C00E
C00C
C018
C010
C070
60C0
3F00
ENDCHAR
STARTCHAR c130
ENCODING -1 130
SWIDTH 548 0
DWIDTH 17 0
BBX 15 20 2 0
BITMAP
0318
0108
0000
7E1E
1804
1804
3008
3008
3008
3008
6010
6010
4010
C010
C020
C020
C040
C040
E180
7E00
ENDCHAR
STARTCHAR c131
ENCODING -1 131
SWIDTH 451 0
DWIDTH 14 0
BBX 13 17 1 0
BITMAP
0318
0318
0000
0000
0000
01F0
0630
0830
1820
3060
2060
6040
60C0
C1C0
C290
CDE0
F180
ENDCHAR
STARTCHAR c132
ENCODING -1 132
SWIDTH 419 0
DWIDTH 13 0
BBX 12 17 1 0
BITMAP
0630
0630
0000
0000
0000
03C0
0C60
1060
3060
6060
6060
C0C0
C0C0
C180
C100
C600
7800
ENDCHAR
STARTCHAR c133
ENCODING -1 133
SWIDTH 451 0
DWIDTH 14 0
BBX 12 17 1 0
BITMAP
0630
0630
0000
0000
0000
1830
7830
9020
3060
3060
2040
60C0
61C0
4280
C490
D9E0
E180
ENDCHAR
STARTCHAR c134
ENCODING -1 134
SWIDTH 451 0
DWIDTH 14 0
BBX 13 18 1 0
BITMAP
0018
0078
00C8
0308
0000
0000
01F0
0630
0830
1820
3060
2060
6040
60C0
C1C0
C290
CDE0
F180
ENDCHAR
STARTCHAR c135
ENCODING -1 135
SWIDTH 354 0
DWIDTH 11 0
BBX 10 18 1 0
BITMAP
00C0
03C0
0640
1840
0000
0000
0380
0CC0
10C0
3180
6300
7C00
C000
C000
C000
C100
C600
7800
ENDCHAR
STARTCHAR c136
ENCODING -1 136
SWIDTH 225 0
DWIDTH 7 0
BBX 6 18 1 0
BITMAP
0C
14
24
44
00
00
18
78
10
30
30
20
60
60
40
C8
F0
C0
ENDCHAR
STARTCHAR c137
ENCODING -1 137
SWIDTH 419 0
DWIDTH 13 0
BBX 12 18 1 0
BITMAP
0030
00F0
0190
0610
0000
0000
03C0
0C60
1060
3060
6060
6060
C0C0
C0C0
C180
C100
C600
7800
ENDCHAR
STARTCHAR c138
ENCODING -1 138
SWIDTH 451 0
DWIDTH 14 0
BBX 12 18 1 0
BITMAP
0030
00F0
0190
0610
0000
0000
1830
7830
9020
3060
3060
2040
60C0
61C0
4280
C490
D9E0
E180
ENDCHAR
STARTCHAR c139
ENCODING -1 139
SWIDTH 451 0
DWIDTH 14 0
BBX 12 19 1 0
BITMAP
0180
0180
00C0
0040
0020
0000
0000
01F0
0630
0830
1820
3060
2060
6040
60C0
C1C0
C290
CDE0
F180
ENDCHAR
STARTCHAR c140
ENCODING -1 140
SWIDTH 354 0
DWIDTH 11 0
BBX 10 19 1 0
BITMAP
0300
0300
0180
0080
0040
0000
0000
0380
0CC0
10C0
3180
6300
7C00
C000
C000
C000
C100
C600
7800
ENDCHAR
STARTCHAR c141
ENCODING -1 141
SWIDTH 225 0
DWIDTH 7 0
BBX 6 19 1 0
BITMAP
30
30
18
08
04
00
00
18
78
10
30
30
20
60
60
40
C8
F0
C0
ENDCHAR
STARTCHAR c142
ENCODING -1 142
SWIDTH 419 0
DWIDTH 13 0
BBX 11 19 1 0
BITMAP
0300
0300
0180
0080
0040
0000
0000
03C0
0C60
1060
3060
6060
6060
C0C0
C0C0
C180
C100
C600
7800
ENDCHAR
STARTCHAR c143
ENCODING -1 143
SWIDTH 451 0
DWIDTH 14 0
BBX 12 19 1 0
BITMAP
0300
0300
0180
0080
0040
0000
0000
1830
7830
9020
3060
3060
2040
60C0
61C0
4280
C490
D9E0
E180
ENDCHAR
STARTCHAR c144
ENCODING -1 144
SWIDTH 354 0
DWIDTH 11 0
BBX 10 19 1 0
BITMAP
00C0
00C0
0180
0100
0200
0000
0000
0380
0CC0
10C0
3180
6300
7C00
C000
C000
C000
C100
C600
7800
ENDCHAR
STARTCHAR c145
ENCODING -1 145
SWIDTH 354 0
DWIDTH 11 0
BBX 10 17 1 0
BITMAP
0CC0
0CC0
0000
0000
0000
0380
0CC0
10C0
3180
6300
7C00
C000
C000
C000
C100
C600
7800
ENDCHAR
STARTCHAR c146
ENCODING -1 146
SWIDTH 225 0
DWIDTH 7 0
BBX 6 17 1 0
BITMAP
6C
24
00
00
00
18
78
10
30
30
20
60
60
40
C8
F0
C0
ENDCHAR
STARTCHAR c147
ENCODING -1 147
SWIDTH 322 0
DWIDTH 10 0
BBX 9 18 1 -6
BITMAP
0700
1980
3180
6000
6000
4000
C000
C000
C000
C100
C600
7800
0000
3000
7800
1800
1000
2000
ENDCHAR
STARTCHAR c148
ENCODING -1 148
SWIDTH 451 0
DWIDTH 14 0
BBX 13 19 1 0
BITMAP
0018
0018
0030
0020
0040
0000
0000
01F0
0630
0830
1820
3060
2060
6040
60C0
C1C0
C290
CDE0
F180
ENDCHAR
STARTCHAR c149
ENCODING -1 149
SWIDTH 451 0
DWIDTH 14 0
BBX 13 18 1 0
BITMAP
0708
0990
10E0
0000
0000
0000
1870
79B0
1230
1420
3860
3060
2040
60C0
60C0
4090
C1E0
C180
ENDCHAR
STARTCHAR c155
ENCODING -1 155
SWIDTH 451 0
DWIDTH 14 0
BBX 14 1 0 6
BITMAP
FFFC
ENDCHAR
STARTCHAR c159
ENCODING -1 159
SWIDTH 387 0
DWIDTH 12 0
BBX 0 0 0 0
BITMAP
ENDCHAR
ENDFONT
